<svg width="414" height="896" viewBox="0 0 414 896" fill="none" xmlns="http://www.w3.org/2000/svg">
<rect width="414" height="896" fill="white"/>
<g filter="url(#filter0_d_1:3)">
<rect x="45" y="381" width="321" height="46" rx="10" fill="#F7F7F7"/>
</g>
<path d="M69.4116 407.321C68.9546 407.858 68.2838 408.127 67.3994 408.127C66.6673 408.127 66.1087 407.915 65.7236 407.492C65.3427 407.065 65.1502 406.434 65.146 405.601V401.132H66.3203V405.569C66.3203 406.61 66.7435 407.13 67.5898 407.13C68.4869 407.13 69.0836 406.796 69.3799 406.127V401.132H70.5542V408H69.437L69.4116 407.321ZM76.3432 406.178C76.3432 405.861 76.2226 405.615 75.9814 405.442C75.7444 405.264 75.3276 405.112 74.7309 404.985C74.1385 404.858 73.6666 404.706 73.3154 404.528C72.9684 404.35 72.7103 404.139 72.541 403.893C72.3759 403.648 72.2934 403.356 72.2934 403.017C72.2934 402.454 72.5304 401.978 73.0044 401.589C73.4826 401.2 74.0919 401.005 74.8325 401.005C75.6111 401.005 76.2417 401.206 76.7241 401.608C77.2107 402.01 77.4541 402.524 77.4541 403.15H76.2734C76.2734 402.829 76.1359 402.552 75.8608 402.319C75.59 402.086 75.2472 401.97 74.8325 401.97C74.4051 401.97 74.0708 402.063 73.8296 402.249C73.5883 402.435 73.4677 402.679 73.4677 402.979C73.4677 403.263 73.5799 403.476 73.8042 403.62C74.0285 403.764 74.4326 403.902 75.0166 404.033C75.6048 404.164 76.0809 404.32 76.4448 404.502C76.8087 404.684 77.0774 404.904 77.2509 405.163C77.4287 405.417 77.5175 405.728 77.5175 406.096C77.5175 406.709 77.2721 407.202 76.7812 407.575C76.2903 407.943 75.6535 408.127 74.8706 408.127C74.3204 408.127 73.8338 408.03 73.4106 407.835C72.9874 407.64 72.6552 407.369 72.414 407.022C72.1771 406.671 72.0586 406.292 72.0586 405.886H73.2329C73.254 406.28 73.4106 406.593 73.7026 406.826C73.9988 407.054 74.3882 407.168 74.8706 407.168C75.3149 407.168 75.6704 407.08 75.937 406.902C76.2078 406.72 76.3432 406.479 76.3432 406.178ZM81.8974 408.127C80.9664 408.127 80.209 407.822 79.625 407.213C79.041 406.599 78.749 405.78 78.749 404.756V404.541C78.749 403.859 78.8781 403.252 79.1362 402.719C79.3986 402.181 79.7625 401.762 80.228 401.462C80.6977 401.157 81.2055 401.005 81.7514 401.005C82.6443 401.005 83.3383 401.299 83.8335 401.887C84.3286 402.475 84.5761 403.318 84.5761 404.414V404.902H79.9233C79.9402 405.579 80.137 406.127 80.5136 406.546C80.8945 406.961 81.3769 407.168 81.9609 407.168C82.3756 407.168 82.7269 407.084 83.0146 406.915C83.3024 406.745 83.5542 406.521 83.77 406.242L84.4873 406.8C83.9118 407.685 83.0485 408.127 81.8974 408.127ZM81.7514 401.97C81.2775 401.97 80.8797 402.143 80.5581 402.49C80.2365 402.833 80.0376 403.315 79.9614 403.938H83.4018V403.849C83.368 403.252 83.2072 402.791 82.9194 402.465C82.6316 402.135 82.2423 401.97 81.7514 401.97ZM89.2607 402.186C89.083 402.156 88.8904 402.141 88.6831 402.141C87.9129 402.141 87.3903 402.469 87.1152 403.125V408H85.9409V401.132H87.0835L87.1025 401.925C87.4876 401.312 88.0335 401.005 88.7402 401.005C88.9687 401.005 89.1422 401.035 89.2607 401.094V402.186ZM91.457 401.132L91.4951 401.995C92.0198 401.335 92.7054 401.005 93.5517 401.005C95.0032 401.005 95.7353 401.824 95.748 403.461V408H94.5737V403.455C94.5695 402.96 94.4552 402.594 94.2309 402.357C94.0109 402.12 93.666 402.001 93.1963 402.001C92.8154 402.001 92.4811 402.103 92.1933 402.306C91.9056 402.509 91.6813 402.776 91.5205 403.106V408H90.3462V401.132H91.457ZM101.759 408C101.692 407.865 101.637 407.623 101.594 407.276C101.048 407.843 100.397 408.127 99.6391 408.127C98.962 408.127 98.4056 407.937 97.9697 407.556C97.5381 407.171 97.3222 406.684 97.3222 406.096C97.3222 405.381 97.5931 404.826 98.1347 404.433C98.6806 404.035 99.4466 403.836 100.433 403.836H101.575V403.296C101.575 402.886 101.452 402.56 101.207 402.319C100.962 402.073 100.6 401.951 100.122 401.951C99.7026 401.951 99.3514 402.056 99.0678 402.268C98.7843 402.48 98.6425 402.736 98.6425 403.036H97.4619C97.4619 402.693 97.5825 402.363 97.8237 402.046C98.0691 401.724 98.3992 401.47 98.8139 401.284C99.2329 401.098 99.692 401.005 100.191 401.005C100.983 401.005 101.603 401.204 102.051 401.602C102.5 401.995 102.733 402.539 102.749 403.233V406.394C102.749 407.025 102.83 407.526 102.991 407.898V408H101.759ZM99.8105 407.105C100.179 407.105 100.528 407.01 100.858 406.819C101.188 406.629 101.427 406.381 101.575 406.077V404.667H100.655C99.216 404.667 98.4966 405.089 98.4966 405.931C98.4966 406.299 98.6193 406.587 98.8647 406.794C99.1102 407.001 99.4254 407.105 99.8105 407.105ZM105.695 401.132L105.727 401.894C106.23 401.301 106.909 401.005 107.764 401.005C108.725 401.005 109.379 401.373 109.726 402.109C109.954 401.779 110.25 401.513 110.614 401.31C110.982 401.106 111.416 401.005 111.915 401.005C113.422 401.005 114.188 401.803 114.213 403.398V408H113.039V403.468C113.039 402.977 112.927 402.611 112.703 402.37C112.478 402.124 112.102 402.001 111.573 402.001C111.137 402.001 110.775 402.133 110.487 402.395C110.2 402.653 110.032 403.002 109.986 403.442V408H108.805V403.5C108.805 402.501 108.316 402.001 107.339 402.001C106.569 402.001 106.042 402.329 105.758 402.985V408H104.584V401.132H105.695ZM118.841 408.127C117.91 408.127 117.152 407.822 116.568 407.213C115.984 406.599 115.692 405.78 115.692 404.756V404.541C115.692 403.859 115.821 403.252 116.08 402.719C116.342 402.181 116.706 401.762 117.171 401.462C117.641 401.157 118.149 401.005 118.695 401.005C119.588 401.005 120.282 401.299 120.777 401.887C121.272 402.475 121.52 403.318 121.52 404.414V404.902H116.867C116.884 405.579 117.08 406.127 117.457 406.546C117.838 406.961 118.32 407.168 118.904 407.168C119.319 407.168 119.67 407.084 119.958 406.915C120.246 406.745 120.498 406.521 120.713 406.242L121.431 406.8C120.855 407.685 119.992 408.127 118.841 408.127ZM118.695 401.97C118.221 401.97 117.823 402.143 117.501 402.49C117.18 402.833 116.981 403.315 116.905 403.938H120.345V403.849C120.311 403.252 120.151 402.791 119.863 402.465C119.575 402.135 119.186 401.97 118.695 401.97Z" fill="#969696"/>
<g filter="url(#filter1_d_1:3)">
<rect x="45" y="448" width="321" height="46" rx="10" fill="#F7F7F7"/>
</g>
<path d="M67.7085 471.382V475H66.4897V465.758H69.8984C70.9098 465.758 71.7011 466.016 72.2724 466.532C72.848 467.049 73.1357 467.732 73.1357 468.583C73.1357 469.48 72.8543 470.172 72.2915 470.658C71.7329 471.141 70.931 471.382 69.8857 471.382H67.7085ZM67.7085 470.385H69.8984C70.5501 470.385 71.0494 470.233 71.3965 469.928C71.7435 469.619 71.917 469.175 71.917 468.595C71.917 468.045 71.7435 467.605 71.3965 467.275C71.0494 466.945 70.5734 466.773 69.9682 466.761H67.7085V470.385ZM78.6709 475C78.6032 474.865 78.5481 474.623 78.5058 474.276C77.9599 474.843 77.3082 475.127 76.5508 475.127C75.8737 475.127 75.3172 474.937 74.8813 474.556C74.4497 474.171 74.2339 473.684 74.2339 473.096C74.2339 472.381 74.5047 471.826 75.0464 471.433C75.5923 471.035 76.3582 470.836 77.3442 470.836H78.4868V470.296C78.4868 469.886 78.3641 469.56 78.1186 469.319C77.8732 469.073 77.5114 468.951 77.0332 468.951C76.6142 468.951 76.263 469.056 75.9795 469.268C75.6959 469.48 75.5542 469.736 75.5542 470.036H74.3735C74.3735 469.693 74.4941 469.363 74.7353 469.046C74.9808 468.724 75.3108 468.47 75.7256 468.284C76.1445 468.098 76.6036 468.005 77.103 468.005C77.8943 468.005 78.5143 468.204 78.9629 468.602C79.4114 468.995 79.6442 469.539 79.6611 470.233V473.394C79.6611 474.025 79.7415 474.526 79.9023 474.898V475H78.6709ZM76.7221 474.105C77.0903 474.105 77.4394 474.01 77.7695 473.819C78.0996 473.629 78.3387 473.381 78.4868 473.077V471.667H77.5664C76.1276 471.667 75.4082 472.089 75.4082 472.931C75.4082 473.299 75.5309 473.587 75.7763 473.794C76.0218 474.001 76.337 474.105 76.7221 474.105ZM85.5009 473.178C85.5009 472.861 85.3803 472.615 85.1391 472.442C84.9022 472.264 84.4853 472.112 83.8886 471.985C83.2962 471.858 82.8244 471.706 82.4731 471.528C82.1261 471.35 81.868 471.139 81.6987 470.893C81.5337 470.648 81.4511 470.356 81.4511 470.017C81.4511 469.454 81.6881 468.978 82.1621 468.589C82.6403 468.2 83.2496 468.005 83.9902 468.005C84.7688 468.005 85.3994 468.206 85.8818 468.608C86.3685 469.01 86.6118 469.524 86.6118 470.15H85.4311C85.4311 469.829 85.2936 469.552 85.0185 469.319C84.7477 469.086 84.4049 468.97 83.9902 468.97C83.5628 468.97 83.2285 469.063 82.9873 469.249C82.7461 469.435 82.6255 469.679 82.6255 469.979C82.6255 470.263 82.7376 470.476 82.9619 470.62C83.1862 470.764 83.5903 470.902 84.1743 471.033C84.7625 471.164 85.2386 471.32 85.6025 471.502C85.9664 471.684 86.2352 471.904 86.4087 472.163C86.5864 472.417 86.6753 472.728 86.6753 473.096C86.6753 473.709 86.4298 474.202 85.9389 474.575C85.448 474.943 84.8112 475.127 84.0283 475.127C83.4782 475.127 82.9915 475.03 82.5683 474.835C82.1452 474.64 81.813 474.369 81.5717 474.022C81.3348 473.671 81.2163 473.292 81.2163 472.886H82.3906C82.4118 473.28 82.5683 473.593 82.8603 473.826C83.1565 474.054 83.5459 474.168 84.0283 474.168C84.4726 474.168 84.8281 474.08 85.0947 473.902C85.3655 473.72 85.5009 473.479 85.5009 473.178ZM92.2041 473.178C92.2041 472.861 92.0835 472.615 91.8423 472.442C91.6053 472.264 91.1884 472.112 90.5918 471.985C89.9993 471.858 89.5275 471.706 89.1762 471.528C88.8292 471.35 88.5711 471.139 88.4018 470.893C88.2368 470.648 88.1543 470.356 88.1543 470.017C88.1543 469.454 88.3912 468.978 88.8652 468.589C89.3434 468.2 89.9528 468.005 90.6933 468.005C91.472 468.005 92.1025 468.206 92.5849 468.608C93.0716 469.01 93.3149 469.524 93.3149 470.15H92.1342C92.1342 469.829 91.9967 469.552 91.7216 469.319C91.4508 469.086 91.108 468.97 90.6933 468.97C90.2659 468.97 89.9316 469.063 89.6904 469.249C89.4492 469.435 89.3286 469.679 89.3286 469.979C89.3286 470.263 89.4407 470.476 89.665 470.62C89.8893 470.764 90.2934 470.902 90.8774 471.033C91.4656 471.164 91.9417 471.32 92.3056 471.502C92.6696 471.684 92.9383 471.904 93.1118 472.163C93.2895 472.417 93.3784 472.728 93.3784 473.096C93.3784 473.709 93.1329 474.202 92.6421 474.575C92.1512 474.943 91.5143 475.127 90.7314 475.127C90.1813 475.127 89.6946 475.03 89.2715 474.835C88.8483 474.64 88.5161 474.369 88.2749 474.022C88.0379 473.671 87.9194 473.292 87.9194 472.886H89.0937C89.1149 473.28 89.2715 473.593 89.5634 473.826C89.8597 474.054 90.249 474.168 90.7314 474.168C91.1758 474.168 91.5312 474.08 91.7978 473.902C92.0687 473.72 92.2041 473.479 92.2041 473.178ZM100.989 473.381L102.31 468.132H103.484L101.484 475H100.532L98.8628 469.795L97.2378 475H96.2856L94.2924 468.132H95.4604L96.8125 473.273L98.4121 468.132H99.3579L100.989 473.381ZM104.373 471.502C104.373 470.83 104.504 470.224 104.766 469.687C105.033 469.15 105.401 468.735 105.871 468.443C106.345 468.151 106.884 468.005 107.489 468.005C108.424 468.005 109.18 468.329 109.755 468.976C110.335 469.624 110.625 470.485 110.625 471.56V471.642C110.625 472.311 110.496 472.912 110.238 473.445C109.984 473.974 109.618 474.386 109.14 474.683C108.666 474.979 108.12 475.127 107.502 475.127C106.571 475.127 105.816 474.803 105.236 474.156C104.66 473.508 104.373 472.651 104.373 471.585V471.502ZM105.553 471.642C105.553 472.404 105.729 473.015 106.08 473.477C106.436 473.938 106.909 474.168 107.502 474.168C108.099 474.168 108.573 473.936 108.924 473.47C109.275 473 109.451 472.345 109.451 471.502C109.451 470.749 109.271 470.14 108.911 469.674C108.556 469.205 108.082 468.97 107.489 468.97C106.909 468.97 106.442 469.2 106.086 469.662C105.731 470.123 105.553 470.783 105.553 471.642ZM115.417 469.186C115.24 469.156 115.047 469.141 114.84 469.141C114.07 469.141 113.547 469.469 113.272 470.125V475H112.098V468.132H113.24L113.259 468.925C113.644 468.312 114.19 468.005 114.897 468.005C115.125 468.005 115.299 468.035 115.417 468.094V469.186ZM116.09 471.509C116.09 470.455 116.34 469.609 116.839 468.97C117.339 468.326 117.992 468.005 118.801 468.005C119.605 468.005 120.242 468.28 120.711 468.83V465.25H121.886V475H120.807L120.749 474.264C120.28 474.839 119.626 475.127 118.788 475.127C117.992 475.127 117.343 474.801 116.839 474.149C116.34 473.498 116.09 472.647 116.09 471.598V471.509ZM117.265 471.642C117.265 472.421 117.425 473.03 117.747 473.47C118.069 473.91 118.513 474.13 119.08 474.13C119.825 474.13 120.369 473.796 120.711 473.127V469.973C120.36 469.325 119.821 469.001 119.093 469.001C118.517 469.001 118.069 469.224 117.747 469.668C117.425 470.112 117.265 470.77 117.265 471.642Z" fill="#969696"/>
<g filter="url(#filter2_d_1:3)">
<rect x="140" y="582" width="133" height="46" rx="10" fill="#323232"/>
</g>
<path d="M188.651 608.85H193.705V610H187.238V599.336H188.651V608.85ZM194.738 605.964C194.738 605.188 194.889 604.49 195.192 603.87C195.5 603.25 195.924 602.771 196.466 602.434C197.013 602.097 197.636 601.929 198.334 601.929C199.413 601.929 200.285 602.302 200.949 603.049C201.618 603.796 201.952 604.79 201.952 606.03V606.125C201.952 606.897 201.803 607.59 201.505 608.206C201.212 608.816 200.79 609.292 200.238 609.634C199.691 609.976 199.062 610.146 198.349 610.146C197.274 610.146 196.403 609.773 195.734 609.026C195.07 608.279 194.738 607.29 194.738 606.06V605.964ZM196.1 606.125C196.1 607.004 196.303 607.71 196.708 608.242C197.118 608.774 197.665 609.041 198.349 609.041C199.037 609.041 199.584 608.772 199.989 608.235C200.395 607.693 200.597 606.936 200.597 605.964C200.597 605.095 200.39 604.392 199.975 603.855C199.564 603.313 199.018 603.042 198.334 603.042C197.665 603.042 197.125 603.308 196.715 603.84C196.305 604.373 196.1 605.134 196.1 606.125ZM203.329 605.972C203.329 604.736 203.615 603.755 204.186 603.027C204.757 602.295 205.514 601.929 206.457 601.929C207.423 601.929 208.178 602.271 208.72 602.954L208.786 602.075H210.023V609.81C210.023 610.835 209.718 611.643 209.108 612.234C208.502 612.825 207.687 613.12 206.662 613.12C206.09 613.12 205.531 612.998 204.984 612.754C204.438 612.51 204.02 612.175 203.732 611.75L204.435 610.938C205.016 611.655 205.727 612.014 206.566 612.014C207.226 612.014 207.738 611.829 208.104 611.458C208.476 611.086 208.661 610.564 208.661 609.89V609.209C208.119 609.834 207.379 610.146 206.442 610.146C205.514 610.146 204.762 609.773 204.186 609.026C203.615 608.279 203.329 607.261 203.329 605.972ZM204.691 606.125C204.691 607.019 204.875 607.722 205.241 608.235C205.607 608.743 206.12 608.997 206.779 608.997C207.633 608.997 208.261 608.608 208.661 607.832V604.214C208.246 603.457 207.624 603.079 206.793 603.079C206.134 603.079 205.619 603.335 205.248 603.848C204.877 604.36 204.691 605.12 204.691 606.125ZM213.795 610H212.389V599.336H213.795V610ZM217.443 602.075L217.487 603.071C218.092 602.31 218.883 601.929 219.86 601.929C221.535 601.929 222.379 602.874 222.394 604.763V610H221.039V604.756C221.034 604.185 220.902 603.762 220.644 603.489C220.39 603.215 219.992 603.079 219.45 603.079C219.01 603.079 218.625 603.196 218.292 603.43C217.96 603.665 217.702 603.972 217.516 604.353V610H216.161V602.075H217.443Z" fill="white"/>
<path d="M254.466 541V535.04H253.381V534.132H254.466V533.427C254.466 532.691 254.663 532.122 255.057 531.72C255.45 531.318 256.007 531.117 256.726 531.117C256.997 531.117 257.266 531.153 257.532 531.225L257.469 532.177C257.27 532.139 257.058 532.12 256.834 532.12C256.453 532.12 256.159 532.232 255.952 532.456C255.744 532.676 255.641 532.993 255.641 533.408V534.132H257.107V535.04H255.641V541H254.466ZM258.097 537.502C258.097 536.83 258.228 536.224 258.491 535.687C258.757 535.15 259.125 534.735 259.595 534.443C260.069 534.151 260.609 534.005 261.214 534.005C262.149 534.005 262.904 534.329 263.48 534.976C264.06 535.624 264.35 536.485 264.35 537.56V537.642C264.35 538.311 264.221 538.912 263.962 539.445C263.708 539.974 263.342 540.386 262.864 540.683C262.39 540.979 261.844 541.127 261.227 541.127C260.296 541.127 259.54 540.803 258.96 540.156C258.385 539.508 258.097 538.651 258.097 537.585V537.502ZM259.278 537.642C259.278 538.404 259.453 539.015 259.805 539.477C260.16 539.938 260.634 540.168 261.227 540.168C261.823 540.168 262.297 539.936 262.648 539.47C263 539 263.175 538.345 263.175 537.502C263.175 536.749 262.995 536.14 262.636 535.674C262.28 535.205 261.806 534.97 261.214 534.97C260.634 534.97 260.167 535.2 259.811 535.662C259.456 536.123 259.278 536.783 259.278 537.642ZM269.142 535.186C268.964 535.156 268.772 535.141 268.564 535.141C267.794 535.141 267.272 535.469 266.997 536.125V541H265.822V534.132H266.965L266.984 534.925C267.369 534.312 267.915 534.005 268.622 534.005C268.85 534.005 269.024 534.035 269.142 534.094V535.186ZM269.821 537.509C269.821 536.438 270.069 535.588 270.564 534.957C271.059 534.322 271.715 534.005 272.532 534.005C273.37 534.005 274.023 534.301 274.493 534.894L274.55 534.132H275.623V540.835C275.623 541.724 275.359 542.424 274.83 542.936C274.305 543.448 273.598 543.704 272.709 543.704C272.214 543.704 271.73 543.598 271.256 543.387C270.782 543.175 270.42 542.885 270.17 542.517L270.78 541.812C271.283 542.435 271.899 542.746 272.627 542.746C273.198 542.746 273.643 542.585 273.96 542.263C274.282 541.942 274.442 541.489 274.442 540.905V540.314C273.973 540.856 273.332 541.127 272.519 541.127C271.715 541.127 271.063 540.803 270.564 540.156C270.069 539.508 269.821 538.626 269.821 537.509ZM271.002 537.642C271.002 538.417 271.161 539.026 271.478 539.47C271.795 539.91 272.24 540.13 272.811 540.13C273.552 540.13 274.095 539.794 274.442 539.121V535.985C274.083 535.329 273.543 535.001 272.824 535.001C272.252 535.001 271.806 535.224 271.484 535.668C271.163 536.112 271.002 536.77 271.002 537.642ZM277.089 537.502C277.089 536.83 277.221 536.224 277.483 535.687C277.75 535.15 278.118 534.735 278.587 534.443C279.061 534.151 279.601 534.005 280.206 534.005C281.141 534.005 281.897 534.329 282.472 534.976C283.052 535.624 283.342 536.485 283.342 537.56V537.642C283.342 538.311 283.213 538.912 282.955 539.445C282.701 539.974 282.335 540.386 281.856 540.683C281.382 540.979 280.837 541.127 280.219 541.127C279.288 541.127 278.532 540.803 277.953 540.156C277.377 539.508 277.089 538.651 277.089 537.585V537.502ZM278.27 537.642C278.27 538.404 278.446 539.015 278.797 539.477C279.152 539.938 279.626 540.168 280.219 540.168C280.815 540.168 281.289 539.936 281.641 539.47C281.992 539 282.167 538.345 282.167 537.502C282.167 536.749 281.988 536.14 281.628 535.674C281.272 535.205 280.799 534.97 280.206 534.97C279.626 534.97 279.159 535.2 278.803 535.662C278.448 536.123 278.27 536.783 278.27 537.642ZM286.408 532.469V534.132H287.69V535.04H286.408V539.299C286.408 539.574 286.465 539.781 286.579 539.921C286.693 540.056 286.888 540.124 287.163 540.124C287.299 540.124 287.485 540.099 287.722 540.048V541C287.413 541.085 287.112 541.127 286.82 541.127C286.296 541.127 285.9 540.968 285.633 540.651C285.367 540.333 285.233 539.883 285.233 539.299V535.04H283.983V534.132H285.233V532.469H286.408ZM298.094 537.642C298.094 538.687 297.855 539.529 297.376 540.168C296.898 540.807 296.251 541.127 295.434 541.127C294.6 541.127 293.944 540.862 293.466 540.333V543.641H292.292V534.132H293.365L293.422 534.894C293.9 534.301 294.564 534.005 295.415 534.005C296.24 534.005 296.892 534.316 297.37 534.938C297.853 535.56 298.094 536.425 298.094 537.534V537.642ZM296.919 537.509C296.919 536.734 296.754 536.123 296.424 535.674C296.094 535.226 295.641 535.001 295.066 535.001C294.355 535.001 293.822 535.317 293.466 535.947V539.229C293.818 539.855 294.355 540.168 295.079 540.168C295.641 540.168 296.088 539.946 296.418 539.502C296.752 539.053 296.919 538.389 296.919 537.509ZM303.832 541C303.764 540.865 303.709 540.623 303.667 540.276C303.121 540.843 302.469 541.127 301.712 541.127C301.035 541.127 300.478 540.937 300.042 540.556C299.611 540.171 299.395 539.684 299.395 539.096C299.395 538.381 299.666 537.826 300.208 537.433C300.753 537.035 301.519 536.836 302.505 536.836H303.648V536.296C303.648 535.886 303.525 535.56 303.28 535.319C303.034 535.073 302.673 534.951 302.194 534.951C301.775 534.951 301.424 535.056 301.141 535.268C300.857 535.48 300.715 535.736 300.715 536.036H299.535C299.535 535.693 299.655 535.363 299.896 535.046C300.142 534.724 300.472 534.47 300.887 534.284C301.306 534.098 301.765 534.005 302.264 534.005C303.056 534.005 303.675 534.204 304.124 534.602C304.573 534.995 304.805 535.539 304.822 536.233V539.394C304.822 540.025 304.903 540.526 305.063 540.898V541H303.832ZM301.883 540.105C302.251 540.105 302.601 540.01 302.931 539.819C303.261 539.629 303.5 539.381 303.648 539.077V537.667H302.728C301.289 537.667 300.569 538.089 300.569 538.931C300.569 539.299 300.692 539.587 300.938 539.794C301.183 540.001 301.498 540.105 301.883 540.105ZM310.662 539.178C310.662 538.861 310.542 538.615 310.3 538.442C310.063 538.264 309.646 538.112 309.05 537.985C308.457 537.858 307.986 537.706 307.634 537.528C307.287 537.35 307.029 537.139 306.86 536.893C306.695 536.648 306.612 536.356 306.612 536.017C306.612 535.454 306.849 534.978 307.323 534.589C307.801 534.2 308.411 534.005 309.151 534.005C309.93 534.005 310.561 534.206 311.043 534.608C311.53 535.01 311.773 535.524 311.773 536.15H310.592C310.592 535.829 310.455 535.552 310.18 535.319C309.909 535.086 309.566 534.97 309.151 534.97C308.724 534.97 308.39 535.063 308.148 535.249C307.907 535.435 307.787 535.679 307.787 535.979C307.787 536.263 307.899 536.476 308.123 536.62C308.347 536.764 308.751 536.902 309.335 537.033C309.924 537.164 310.4 537.32 310.764 537.502C311.128 537.684 311.396 537.904 311.57 538.163C311.748 538.417 311.836 538.728 311.836 539.096C311.836 539.709 311.591 540.202 311.1 540.575C310.609 540.943 309.972 541.127 309.189 541.127C308.639 541.127 308.153 541.03 307.729 540.835C307.306 540.64 306.974 540.369 306.733 540.022C306.496 539.671 306.377 539.292 306.377 538.886H307.552C307.573 539.28 307.729 539.593 308.021 539.826C308.318 540.054 308.707 540.168 309.189 540.168C309.634 540.168 309.989 540.08 310.256 539.902C310.527 539.72 310.662 539.479 310.662 539.178ZM317.365 539.178C317.365 538.861 317.245 538.615 317.003 538.442C316.766 538.264 316.35 538.112 315.753 537.985C315.16 537.858 314.689 537.706 314.337 537.528C313.99 537.35 313.732 537.139 313.563 536.893C313.398 536.648 313.315 536.356 313.315 536.017C313.315 535.454 313.552 534.978 314.026 534.589C314.505 534.2 315.114 534.005 315.854 534.005C316.633 534.005 317.264 534.206 317.746 534.608C318.233 535.01 318.476 535.524 318.476 536.15H317.295C317.295 535.829 317.158 535.552 316.883 535.319C316.612 535.086 316.269 534.97 315.854 534.97C315.427 534.97 315.093 535.063 314.852 535.249C314.61 535.435 314.49 535.679 314.49 535.979C314.49 536.263 314.602 536.476 314.826 536.62C315.05 536.764 315.455 536.902 316.039 537.033C316.627 537.164 317.103 537.32 317.467 537.502C317.831 537.684 318.099 537.904 318.273 538.163C318.451 538.417 318.54 538.728 318.54 539.096C318.54 539.709 318.294 540.202 317.803 540.575C317.312 540.943 316.675 541.127 315.893 541.127C315.342 541.127 314.856 541.03 314.433 540.835C314.009 540.64 313.677 540.369 313.436 540.022C313.199 539.671 313.081 539.292 313.081 538.886H314.255C314.276 539.28 314.433 539.593 314.725 539.826C315.021 540.054 315.41 540.168 315.893 540.168C316.337 540.168 316.692 540.08 316.959 539.902C317.23 539.72 317.365 539.479 317.365 539.178ZM326.15 539.381L327.471 534.132H328.645L326.646 541H325.693L324.024 535.795L322.399 541H321.447L319.454 534.132H320.622L321.974 539.273L323.573 534.132H324.519L326.15 539.381ZM329.534 537.502C329.534 536.83 329.665 536.224 329.927 535.687C330.194 535.15 330.562 534.735 331.032 534.443C331.506 534.151 332.045 534.005 332.65 534.005C333.586 534.005 334.341 534.329 334.917 534.976C335.496 535.624 335.786 536.485 335.786 537.56V537.642C335.786 538.311 335.657 538.912 335.399 539.445C335.145 539.974 334.779 540.386 334.301 540.683C333.827 540.979 333.281 541.127 332.663 541.127C331.732 541.127 330.977 540.803 330.397 540.156C329.821 539.508 329.534 538.651 329.534 537.585V537.502ZM330.714 537.642C330.714 538.404 330.89 539.015 331.241 539.477C331.597 539.938 332.071 540.168 332.663 540.168C333.26 540.168 333.734 539.936 334.085 539.47C334.436 539 334.612 538.345 334.612 537.502C334.612 536.749 334.432 536.14 334.072 535.674C333.717 535.205 333.243 534.97 332.65 534.97C332.071 534.97 331.603 535.2 331.248 535.662C330.892 536.123 330.714 536.783 330.714 537.642ZM340.579 535.186C340.401 535.156 340.208 535.141 340.001 535.141C339.231 535.141 338.708 535.469 338.433 536.125V541H337.259V534.132H338.401L338.42 534.925C338.806 534.312 339.351 534.005 340.058 534.005C340.287 534.005 340.46 534.035 340.579 534.094V535.186ZM341.251 537.509C341.251 536.455 341.501 535.609 342 534.97C342.5 534.326 343.154 534.005 343.962 534.005C344.766 534.005 345.403 534.28 345.873 534.83V531.25H347.047V541H345.968L345.911 540.264C345.441 540.839 344.787 541.127 343.949 541.127C343.154 541.127 342.504 540.801 342 540.149C341.501 539.498 341.251 538.647 341.251 537.598V537.509ZM342.426 537.642C342.426 538.421 342.587 539.03 342.908 539.47C343.23 539.91 343.674 540.13 344.241 540.13C344.986 540.13 345.53 539.796 345.873 539.127V535.973C345.521 535.325 344.982 535.001 344.254 535.001C343.678 535.001 343.23 535.224 342.908 535.668C342.587 536.112 342.426 536.77 342.426 537.642ZM350.252 538.397C350.261 537.894 350.318 537.496 350.424 537.204C350.53 536.912 350.745 536.588 351.071 536.233L351.903 535.376C352.258 534.974 352.436 534.542 352.436 534.081C352.436 533.637 352.32 533.29 352.087 533.04C351.854 532.786 351.516 532.659 351.071 532.659C350.64 532.659 350.293 532.773 350.03 533.002C349.768 533.23 349.637 533.537 349.637 533.922H348.462C348.471 533.237 348.714 532.685 349.192 532.266C349.675 531.842 350.301 531.631 351.071 531.631C351.871 531.631 352.493 531.847 352.938 532.278C353.386 532.706 353.61 533.294 353.61 534.043C353.61 534.784 353.268 535.514 352.582 536.233L351.89 536.918C351.581 537.261 351.427 537.754 351.427 538.397H350.252ZM350.202 540.41C350.202 540.219 350.259 540.061 350.373 539.934C350.492 539.802 350.665 539.737 350.894 539.737C351.122 539.737 351.296 539.802 351.414 539.934C351.533 540.061 351.592 540.219 351.592 540.41C351.592 540.6 351.533 540.759 351.414 540.886C351.296 541.008 351.122 541.07 350.894 541.07C350.665 541.07 350.492 541.008 350.373 540.886C350.259 540.759 350.202 540.6 350.202 540.41Z" fill="black"/>
<path d="M88.2378 663V652.336H91.248C92.1758 652.336 92.9961 652.541 93.709 652.951C94.4219 653.361 94.9712 653.945 95.3569 654.702C95.7476 655.458 95.9453 656.328 95.9502 657.309V657.99C95.9502 658.996 95.7549 659.877 95.3643 660.634C94.9785 661.391 94.4243 661.972 93.7017 662.377C92.9839 662.783 92.1465 662.99 91.1895 663H88.2378ZM89.644 653.493V661.85H91.1235C92.2075 661.85 93.0498 661.513 93.6504 660.839C94.2559 660.166 94.5586 659.206 94.5586 657.961V657.338C94.5586 656.127 94.2729 655.188 93.7017 654.519C93.1353 653.845 92.3296 653.503 91.2847 653.493H89.644ZM97.5103 658.964C97.5103 658.188 97.6616 657.49 97.9644 656.87C98.272 656.25 98.6968 655.771 99.2388 655.434C99.7856 655.097 100.408 654.929 101.106 654.929C102.186 654.929 103.057 655.302 103.721 656.049C104.39 656.796 104.725 657.79 104.725 659.03V659.125C104.725 659.897 104.576 660.59 104.278 661.206C103.985 661.816 103.562 662.292 103.011 662.634C102.464 662.976 101.834 663.146 101.121 663.146C100.047 663.146 99.1753 662.773 98.5063 662.026C97.8423 661.279 97.5103 660.29 97.5103 659.06V658.964ZM98.8726 659.125C98.8726 660.004 99.0752 660.71 99.4805 661.242C99.8906 661.774 100.438 662.041 101.121 662.041C101.81 662.041 102.356 661.772 102.762 661.235C103.167 660.693 103.37 659.936 103.37 658.964C103.37 658.095 103.162 657.392 102.747 656.855C102.337 656.313 101.79 656.042 101.106 656.042C100.438 656.042 99.8979 656.308 99.4878 656.84C99.0776 657.373 98.8726 658.134 98.8726 659.125ZM107.706 655.075L107.75 656.071C108.355 655.31 109.146 654.929 110.123 654.929C111.797 654.929 112.642 655.874 112.657 657.763V663H111.302V657.756C111.297 657.185 111.165 656.762 110.906 656.489C110.652 656.215 110.254 656.079 109.712 656.079C109.273 656.079 108.887 656.196 108.555 656.43C108.223 656.665 107.964 656.972 107.779 657.353V663H106.424V655.075H107.706ZM114.209 655.339L113.44 654.812C113.895 654.177 114.129 653.508 114.144 652.805V651.75H115.484V652.702C115.479 653.19 115.357 653.679 115.118 654.167C114.883 654.65 114.581 655.041 114.209 655.339ZM118.956 653.156V655.075H120.435V656.123H118.956V661.037C118.956 661.354 119.021 661.594 119.153 661.755C119.285 661.911 119.51 661.989 119.827 661.989C119.983 661.989 120.198 661.96 120.472 661.901V663C120.115 663.098 119.769 663.146 119.432 663.146C118.826 663.146 118.37 662.963 118.062 662.597C117.754 662.231 117.601 661.711 117.601 661.037V656.123H116.158V655.075H117.601V653.156H118.956ZM127.1 656.035C127.701 655.297 128.482 654.929 129.444 654.929C131.119 654.929 131.963 655.874 131.978 657.763V663H130.623V657.756C130.618 657.185 130.486 656.762 130.228 656.489C129.974 656.215 129.576 656.079 129.034 656.079C128.594 656.079 128.208 656.196 127.876 656.43C127.544 656.665 127.286 656.972 127.1 657.353V663H125.745V651.75H127.1V656.035ZM138.899 663C138.821 662.844 138.758 662.565 138.709 662.165C138.079 662.819 137.327 663.146 136.453 663.146C135.672 663.146 135.03 662.927 134.527 662.487C134.029 662.043 133.78 661.481 133.78 660.803C133.78 659.978 134.092 659.338 134.717 658.884C135.347 658.425 136.231 658.195 137.369 658.195H138.687V657.573C138.687 657.099 138.545 656.723 138.262 656.445C137.979 656.162 137.562 656.02 137.01 656.02C136.526 656.02 136.121 656.142 135.794 656.386C135.467 656.63 135.303 656.926 135.303 657.272H133.941C133.941 656.877 134.08 656.496 134.358 656.13C134.642 655.759 135.022 655.466 135.501 655.251C135.984 655.036 136.514 654.929 137.09 654.929C138.003 654.929 138.719 655.158 139.236 655.617C139.754 656.071 140.022 656.699 140.042 657.5V661.147C140.042 661.875 140.135 662.453 140.32 662.883V663H138.899ZM136.651 661.967C137.076 661.967 137.479 661.857 137.859 661.638C138.24 661.418 138.516 661.132 138.687 660.781V659.155H137.625C135.965 659.155 135.135 659.641 135.135 660.612C135.135 661.037 135.276 661.369 135.56 661.608C135.843 661.848 136.207 661.967 136.651 661.967ZM144.664 661.162L146.626 655.075H148.011L145.169 663H144.136L141.265 655.075H142.649L144.664 661.162ZM152.5 663.146C151.426 663.146 150.552 662.795 149.878 662.092C149.205 661.384 148.868 660.439 148.868 659.257V659.008C148.868 658.222 149.017 657.521 149.314 656.906C149.617 656.286 150.037 655.803 150.574 655.456C151.116 655.104 151.702 654.929 152.332 654.929C153.362 654.929 154.163 655.268 154.734 655.947C155.306 656.625 155.591 657.597 155.591 658.862V659.426H150.223C150.242 660.207 150.469 660.839 150.904 661.323C151.343 661.801 151.9 662.041 152.574 662.041C153.052 662.041 153.458 661.943 153.79 661.748C154.122 661.552 154.412 661.293 154.661 660.971L155.489 661.616C154.825 662.636 153.829 663.146 152.5 663.146ZM152.332 656.042C151.785 656.042 151.326 656.242 150.955 656.643C150.584 657.038 150.354 657.595 150.267 658.312H154.236V658.21C154.197 657.521 154.012 656.989 153.68 656.613C153.348 656.232 152.898 656.042 152.332 656.042ZM165.779 663C165.701 662.844 165.638 662.565 165.589 662.165C164.959 662.819 164.207 663.146 163.333 663.146C162.552 663.146 161.91 662.927 161.407 662.487C160.909 662.043 160.66 661.481 160.66 660.803C160.66 659.978 160.972 659.338 161.597 658.884C162.227 658.425 163.111 658.195 164.249 658.195H165.567V657.573C165.567 657.099 165.425 656.723 165.142 656.445C164.859 656.162 164.441 656.02 163.89 656.02C163.406 656.02 163.001 656.142 162.674 656.386C162.347 656.63 162.183 656.926 162.183 657.272H160.821C160.821 656.877 160.96 656.496 161.238 656.13C161.521 655.759 161.902 655.466 162.381 655.251C162.864 655.036 163.394 654.929 163.97 654.929C164.883 654.929 165.599 655.158 166.116 655.617C166.634 656.071 166.902 656.699 166.922 657.5V661.147C166.922 661.875 167.015 662.453 167.2 662.883V663H165.779ZM163.531 661.967C163.956 661.967 164.358 661.857 164.739 661.638C165.12 661.418 165.396 661.132 165.567 660.781V659.155H164.505C162.845 659.155 162.015 659.641 162.015 660.612C162.015 661.037 162.156 661.369 162.439 661.608C162.723 661.848 163.086 661.967 163.531 661.967ZM170.328 655.075L170.372 656.071C170.977 655.31 171.768 654.929 172.745 654.929C174.419 654.929 175.264 655.874 175.279 657.763V663H173.924V657.756C173.919 657.185 173.787 656.762 173.528 656.489C173.274 656.215 172.876 656.079 172.334 656.079C171.895 656.079 171.509 656.196 171.177 656.43C170.845 656.665 170.586 656.972 170.401 657.353V663H169.046V655.075H170.328ZM185.936 663C185.857 662.844 185.794 662.565 185.745 662.165C185.115 662.819 184.363 663.146 183.489 663.146C182.708 663.146 182.066 662.927 181.563 662.487C181.065 662.043 180.816 661.481 180.816 660.803C180.816 659.978 181.128 659.338 181.753 658.884C182.383 658.425 183.267 658.195 184.405 658.195H185.723V657.573C185.723 657.099 185.582 656.723 185.298 656.445C185.015 656.162 184.598 656.02 184.046 656.02C183.562 656.02 183.157 656.142 182.83 656.386C182.503 656.63 182.339 656.926 182.339 657.272H180.977C180.977 656.877 181.116 656.496 181.395 656.13C181.678 655.759 182.059 655.466 182.537 655.251C183.021 655.036 183.55 654.929 184.126 654.929C185.04 654.929 185.755 655.158 186.272 655.617C186.79 656.071 187.059 656.699 187.078 657.5V661.147C187.078 661.875 187.171 662.453 187.356 662.883V663H185.936ZM183.687 661.967C184.112 661.967 184.515 661.857 184.896 661.638C185.276 661.418 185.552 661.132 185.723 660.781V659.155H184.661C183.001 659.155 182.171 659.641 182.171 660.612C182.171 661.037 182.312 661.369 182.596 661.608C182.879 661.848 183.243 661.967 183.687 661.967ZM192.381 662.041C192.864 662.041 193.287 661.894 193.648 661.601C194.009 661.308 194.209 660.942 194.249 660.502H195.53C195.506 660.957 195.35 661.389 195.062 661.799C194.773 662.209 194.388 662.536 193.904 662.78C193.426 663.024 192.918 663.146 192.381 663.146C191.302 663.146 190.442 662.788 189.803 662.07C189.168 661.347 188.851 660.361 188.851 659.111V658.884C188.851 658.112 188.992 657.426 189.275 656.826C189.559 656.225 189.964 655.759 190.491 655.427C191.023 655.095 191.651 654.929 192.374 654.929C193.262 654.929 194 655.195 194.585 655.727C195.176 656.259 195.491 656.95 195.53 657.8H194.249C194.209 657.287 194.014 656.867 193.663 656.54C193.316 656.208 192.886 656.042 192.374 656.042C191.685 656.042 191.15 656.291 190.77 656.789C190.394 657.282 190.206 657.998 190.206 658.935V659.191C190.206 660.104 190.394 660.808 190.77 661.301C191.146 661.794 191.683 662.041 192.381 662.041ZM200.232 662.041C200.716 662.041 201.138 661.894 201.5 661.601C201.861 661.308 202.061 660.942 202.1 660.502H203.382C203.357 660.957 203.201 661.389 202.913 661.799C202.625 662.209 202.239 662.536 201.756 662.78C201.277 663.024 200.77 663.146 200.232 663.146C199.153 663.146 198.294 662.788 197.654 662.07C197.02 661.347 196.702 660.361 196.702 659.111V658.884C196.702 658.112 196.844 657.426 197.127 656.826C197.41 656.225 197.815 655.759 198.343 655.427C198.875 655.095 199.502 654.929 200.225 654.929C201.114 654.929 201.851 655.195 202.437 655.727C203.028 656.259 203.343 656.95 203.382 657.8H202.1C202.061 657.287 201.866 656.867 201.514 656.54C201.167 656.208 200.738 656.042 200.225 656.042C199.537 656.042 199.002 656.291 198.621 656.789C198.245 657.282 198.057 657.998 198.057 658.935V659.191C198.057 660.104 198.245 660.808 198.621 661.301C198.997 661.794 199.534 662.041 200.232 662.041ZM204.546 658.964C204.546 658.188 204.698 657.49 205 656.87C205.308 656.25 205.733 655.771 206.275 655.434C206.822 655.097 207.444 654.929 208.143 654.929C209.222 654.929 210.093 655.302 210.757 656.049C211.426 656.796 211.761 657.79 211.761 659.03V659.125C211.761 659.897 211.612 660.59 211.314 661.206C211.021 661.816 210.599 662.292 210.047 662.634C209.5 662.976 208.87 663.146 208.157 663.146C207.083 663.146 206.211 662.773 205.542 662.026C204.878 661.279 204.546 660.29 204.546 659.06V658.964ZM205.909 659.125C205.909 660.004 206.111 660.71 206.517 661.242C206.927 661.774 207.474 662.041 208.157 662.041C208.846 662.041 209.393 661.772 209.798 661.235C210.203 660.693 210.406 659.936 210.406 658.964C210.406 658.095 210.198 657.392 209.783 656.855C209.373 656.313 208.826 656.042 208.143 656.042C207.474 656.042 206.934 656.308 206.524 656.84C206.114 657.373 205.909 658.134 205.909 659.125ZM218.353 662.216C217.825 662.836 217.051 663.146 216.031 663.146C215.186 663.146 214.542 662.902 214.097 662.414C213.658 661.921 213.436 661.193 213.431 660.231V655.075H214.786V660.195C214.786 661.396 215.274 661.997 216.25 661.997C217.286 661.997 217.974 661.611 218.316 660.839V655.075H219.671V663H218.382L218.353 662.216ZM223.018 655.075L223.062 656.071C223.667 655.31 224.458 654.929 225.435 654.929C227.11 654.929 227.955 655.874 227.969 657.763V663H226.614V657.756C226.609 657.185 226.478 656.762 226.219 656.489C225.965 656.215 225.567 656.079 225.025 656.079C224.585 656.079 224.2 656.196 223.868 656.43C223.536 656.665 223.277 656.972 223.091 657.353V663H221.736V655.075H223.018ZM231.851 653.156V655.075H233.331V656.123H231.851V661.037C231.851 661.354 231.917 661.594 232.049 661.755C232.181 661.911 232.405 661.989 232.723 661.989C232.879 661.989 233.094 661.96 233.367 661.901V663C233.011 663.098 232.664 663.146 232.327 663.146C231.722 663.146 231.265 662.963 230.958 662.597C230.65 662.231 230.496 661.711 230.496 661.037V656.123H229.053V655.075H230.496V653.156H231.851ZM234.876 665.124L234.107 664.597C234.566 663.957 234.805 663.298 234.825 662.619V661.396H236.15V662.458C236.15 662.951 236.028 663.444 235.784 663.938C235.545 664.431 235.242 664.826 234.876 665.124ZM297.71 655.075L297.754 656.071C298.36 655.31 299.151 654.929 300.127 654.929C301.802 654.929 302.647 655.874 302.662 657.763V663H301.307V657.756C301.302 657.185 301.17 656.762 300.911 656.489C300.657 656.215 300.259 656.079 299.717 656.079C299.278 656.079 298.892 656.196 298.56 656.43C298.228 656.665 297.969 656.972 297.784 657.353V663H296.429V655.075H297.71ZM304.346 658.964C304.346 658.188 304.498 657.49 304.8 656.87C305.108 656.25 305.533 655.771 306.075 655.434C306.622 655.097 307.244 654.929 307.942 654.929C309.021 654.929 309.893 655.302 310.557 656.049C311.226 656.796 311.561 657.79 311.561 659.03V659.125C311.561 659.897 311.412 660.59 311.114 661.206C310.821 661.816 310.398 662.292 309.847 662.634C309.3 662.976 308.67 663.146 307.957 663.146C306.883 663.146 306.011 662.773 305.342 662.026C304.678 661.279 304.346 660.29 304.346 659.06V658.964ZM305.708 659.125C305.708 660.004 305.911 660.71 306.316 661.242C306.727 661.774 307.273 662.041 307.957 662.041C308.646 662.041 309.192 661.772 309.598 661.235C310.003 660.693 310.206 659.936 310.206 658.964C310.206 658.095 309.998 657.392 309.583 656.855C309.173 656.313 308.626 656.042 307.942 656.042C307.273 656.042 306.734 656.308 306.324 656.84C305.914 657.373 305.708 658.134 305.708 659.125ZM320.276 661.132L321.8 655.075H323.155L320.848 663H319.749L317.823 656.994L315.948 663H314.849L312.549 655.075H313.897L315.457 661.008L317.303 655.075H318.394L320.276 661.132ZM323.66 662.29C323.66 662.055 323.729 661.86 323.865 661.704C324.007 661.547 324.217 661.469 324.495 661.469C324.773 661.469 324.983 661.547 325.125 661.704C325.271 661.86 325.345 662.055 325.345 662.29C325.345 662.514 325.271 662.702 325.125 662.854C324.983 663.005 324.773 663.081 324.495 663.081C324.217 663.081 324.007 663.005 323.865 662.854C323.729 662.702 323.66 662.514 323.66 662.29Z" fill="#969696"/>
<path d="M244.939 658.247C243.733 657.9 242.854 657.475 242.303 656.972C241.756 656.464 241.482 655.839 241.482 655.097C241.482 654.257 241.817 653.564 242.486 653.017C243.16 652.465 244.034 652.189 245.108 652.189C245.84 652.189 246.492 652.331 247.063 652.614C247.64 652.897 248.084 653.288 248.396 653.786C248.714 654.284 248.873 654.829 248.873 655.419H247.459C247.459 654.775 247.254 654.27 246.844 653.903C246.434 653.532 245.855 653.347 245.108 653.347C244.415 653.347 243.873 653.5 243.482 653.808C243.096 654.111 242.903 654.533 242.903 655.075C242.903 655.51 243.086 655.878 243.453 656.181C243.824 656.479 244.451 656.752 245.335 657.001C246.224 657.25 246.917 657.526 247.415 657.829C247.918 658.127 248.289 658.476 248.528 658.876C248.772 659.277 248.895 659.748 248.895 660.29C248.895 661.154 248.558 661.848 247.884 662.37C247.21 662.888 246.309 663.146 245.181 663.146C244.449 663.146 243.765 663.007 243.13 662.729C242.496 662.446 242.005 662.06 241.658 661.572C241.316 661.083 241.146 660.529 241.146 659.909H242.559C242.559 660.554 242.796 661.064 243.27 661.44C243.748 661.811 244.385 661.997 245.181 661.997C245.923 661.997 246.492 661.845 246.888 661.542C247.283 661.24 247.481 660.827 247.481 660.305C247.481 659.782 247.298 659.379 246.932 659.096C246.565 658.808 245.901 658.525 244.939 658.247ZM251.963 663H250.608V655.075H251.963V663ZM250.499 652.973C250.499 652.753 250.564 652.568 250.696 652.417C250.833 652.265 251.033 652.189 251.297 652.189C251.561 652.189 251.761 652.265 251.897 652.417C252.034 652.568 252.103 652.753 252.103 652.973C252.103 653.193 252.034 653.376 251.897 653.522C251.761 653.669 251.561 653.742 251.297 653.742C251.033 653.742 250.833 653.669 250.696 653.522C250.564 653.376 250.499 653.193 250.499 652.973ZM253.816 658.972C253.816 657.736 254.102 656.755 254.673 656.027C255.245 655.295 256.001 654.929 256.944 654.929C257.911 654.929 258.665 655.271 259.207 655.954L259.273 655.075H260.511V662.81C260.511 663.835 260.206 664.643 259.595 665.234C258.99 665.825 258.174 666.12 257.149 666.12C256.578 666.12 256.019 665.998 255.472 665.754C254.925 665.51 254.507 665.175 254.219 664.75L254.922 663.938C255.503 664.655 256.214 665.014 257.054 665.014C257.713 665.014 258.226 664.829 258.592 664.458C258.963 664.086 259.148 663.564 259.148 662.89V662.209C258.606 662.834 257.867 663.146 256.929 663.146C256.001 663.146 255.25 662.773 254.673 662.026C254.102 661.279 253.816 660.261 253.816 658.972ZM255.179 659.125C255.179 660.019 255.362 660.722 255.728 661.235C256.094 661.743 256.607 661.997 257.266 661.997C258.121 661.997 258.748 661.608 259.148 660.832V657.214C258.733 656.457 258.111 656.079 257.281 656.079C256.622 656.079 256.106 656.335 255.735 656.848C255.364 657.36 255.179 658.12 255.179 659.125ZM263.843 655.075L263.887 656.071C264.493 655.31 265.284 654.929 266.26 654.929C267.935 654.929 268.78 655.874 268.794 657.763V663H267.439V657.756C267.435 657.185 267.303 656.762 267.044 656.489C266.79 656.215 266.392 656.079 265.85 656.079C265.411 656.079 265.025 656.196 264.693 656.43C264.361 656.665 264.102 656.972 263.917 657.353V663H262.562V655.075H263.843ZM282.278 652.336V659.587C282.273 660.593 281.956 661.416 281.326 662.055C280.701 662.695 279.852 663.054 278.777 663.132L278.404 663.146C277.237 663.146 276.307 662.832 275.613 662.202C274.92 661.572 274.568 660.705 274.559 659.602V652.336H275.95V659.558C275.95 660.329 276.163 660.93 276.587 661.359C277.012 661.784 277.618 661.997 278.404 661.997C279.2 661.997 279.808 661.784 280.228 661.359C280.652 660.935 280.865 660.336 280.865 659.565V652.336H282.278ZM290.979 659.125C290.979 660.332 290.704 661.303 290.152 662.041C289.6 662.778 288.853 663.146 287.911 663.146C286.949 663.146 286.192 662.841 285.64 662.231V666.047H284.285V655.075H285.523L285.589 655.954C286.141 655.271 286.907 654.929 287.889 654.929C288.841 654.929 289.593 655.288 290.145 656.005C290.701 656.723 290.979 657.722 290.979 659.001V659.125ZM289.625 658.972C289.625 658.078 289.434 657.373 289.053 656.855C288.672 656.337 288.15 656.079 287.486 656.079C286.666 656.079 286.05 656.442 285.64 657.17V660.957C286.045 661.679 286.666 662.041 287.5 662.041C288.15 662.041 288.665 661.784 289.046 661.271C289.432 660.754 289.625 659.987 289.625 658.972Z" fill="#323232"/>
<path d="M209.18 739.865C209.18 741.113 208.948 742.218 208.485 743.179C208.022 744.14 207.363 744.881 206.508 745.402C205.658 745.918 204.688 746.176 203.599 746.176C202.509 746.176 201.542 745.927 200.698 745.429C199.854 744.925 199.195 744.207 198.721 743.275C198.252 742.344 198.006 741.274 197.982 740.067V739.347C197.982 738.093 198.211 736.988 198.668 736.033C199.131 735.072 199.79 734.331 200.646 733.81C201.507 733.288 202.485 733.027 203.581 733.027C204.665 733.027 205.632 733.285 206.481 733.801C207.331 734.316 207.99 735.052 208.459 736.007C208.934 736.956 209.174 738.046 209.18 739.276V739.865ZM206.042 739.329C206.042 738.058 205.828 737.094 205.4 736.438C204.979 735.775 204.372 735.444 203.581 735.444C202.034 735.444 201.217 736.604 201.129 738.925L201.12 739.865C201.12 741.119 201.328 742.083 201.744 742.757C202.16 743.431 202.778 743.768 203.599 743.768C204.378 743.768 204.979 743.437 205.4 742.774C205.822 742.112 206.036 741.16 206.042 739.918V739.329ZM216.387 739.171L215.411 739.101C214.479 739.101 213.882 739.394 213.618 739.979V746H210.656V736.49H213.434L213.53 737.712C214.028 736.78 214.723 736.314 215.613 736.314C215.93 736.314 216.205 736.35 216.439 736.42L216.387 739.171Z" fill="black"/>
<path fill-rule="evenodd" clip-rule="evenodd" d="M152 778C142.058 778 134 786.06 134 796C134 805.94 142.058 814 152 814C161.94 814 170 805.94 170 796C170 786.06 161.94 778 152 778ZM152.21 806.527C146.408 806.527 141.71 801.817 141.71 796C141.71 790.183 146.408 785.473 152.21 785.473C155.045 785.473 157.415 786.518 159.233 788.216L156.272 791.183V791.177C155.169 790.124 153.772 789.585 152.21 789.585C148.745 789.585 145.93 792.519 145.93 795.994C145.93 799.467 148.745 802.41 152.21 802.41C155.354 802.41 157.493 800.606 157.934 798.131H152.21V794.026H162.088C162.22 794.731 162.29 795.466 162.29 796.237C162.29 802.252 158.275 806.527 152.21 806.527V806.527Z" fill="black"/>
<path fill-rule="evenodd" clip-rule="evenodd" d="M242 798.101C242 807.05 248.68 814.491 257.417 816V803H252.792V798H257.417V794C257.417 789.5 260.397 787 264.612 787C265.947 787 267.387 787.2 268.722 787.4V792H266.358C264.097 792 263.583 793.099 263.583 794.5V798H268.517L267.695 803H263.583V816C272.32 814.491 279 807.051 279 798.101C279 788.145 270.675 780 260.5 780C250.325 780 242 788.145 242 798.101Z" fill="black"/>
<path d="M206 815.5C200.607 815.5 195.958 813.572 192.185 809.767C188.413 805.973 186.5 801.341 186.5 796C186.5 790.609 188.415 785.96 192.192 782.188C195.962 778.415 200.609 776.5 206 776.5C211.343 776.5 215.975 778.413 219.767 782.185C223.57 785.96 225.5 790.609 225.5 796C225.5 801.341 223.572 805.975 219.771 809.774C215.978 813.572 211.345 815.5 206 815.5ZM206 780.833C201.74 780.833 198.226 782.279 195.258 785.253C192.281 788.226 190.833 791.74 190.833 796C190.833 800.212 192.281 803.718 195.26 806.714C198.233 809.711 201.745 811.167 206 811.167C210.21 811.167 213.713 809.709 216.706 806.71C219.709 803.711 221.167 800.206 221.167 796C221.167 791.747 219.711 788.233 216.714 785.26C213.718 782.281 210.214 780.833 206 780.833ZM199.5 801.417C196.512 801.417 194.083 798.988 194.083 796C194.083 793.012 196.512 790.583 199.5 790.583C202.488 790.583 204.917 793.012 204.917 796C204.917 798.988 202.488 801.417 199.5 801.417ZM199.5 792.75C197.708 792.75 196.25 794.208 196.25 796C196.25 797.792 197.708 799.25 199.5 799.25C201.292 799.25 202.75 797.792 202.75 796C202.75 794.208 201.292 792.75 199.5 792.75ZM212.5 801.417C209.512 801.417 207.083 798.988 207.083 796C207.083 793.012 209.512 790.583 212.5 790.583C215.488 790.583 217.917 793.012 217.917 796C217.917 798.988 215.488 801.417 212.5 801.417Z" fill="black"/>
<path d="M182.323 216.338L190.231 211.777L185.817 204.135H227.333L206.582 240.09L202.167 232.435L194.259 237.01L206.582 258.348L243.15 195H170L182.323 216.338Z" fill="#414042"/>
<rect opacity="0.35" x="375.5" y="17.8333" width="21" height="10.3333" rx="2.16667" stroke="black"/>
<path opacity="0.4" d="M398 21V25C398.808 24.6612 399.333 23.8731 399.333 23C399.333 22.1269 398.808 21.3388 398 21" fill="black"/>
<rect x="377" y="19.3333" width="18" height="7.33333" rx="1.33333" fill="black"/>
<path fill-rule="evenodd" clip-rule="evenodd" d="M362.334 19.5739C364.558 19.574 366.698 20.4117 368.311 21.9138C368.432 22.0298 368.626 22.0284 368.746 21.9106L369.906 20.7627C369.967 20.703 370.001 20.6221 370 20.5379C369.999 20.4537 369.965 20.3731 369.904 20.3141C365.672 16.3398 358.995 16.3398 354.763 20.3141C354.702 20.3731 354.667 20.4536 354.667 20.5378C354.666 20.622 354.7 20.7029 354.76 20.7627L355.921 21.9106C356.041 22.0285 356.235 22.03 356.356 21.9138C357.969 20.4116 360.109 19.5739 362.334 19.5739ZM362.332 23.2995C363.556 23.2994 364.736 23.756 365.643 24.5805C365.766 24.6976 365.959 24.695 366.079 24.5748L367.239 23.3977C367.3 23.3359 367.334 23.2522 367.333 23.1651C367.332 23.0781 367.297 22.995 367.234 22.9345C364.472 20.3552 360.194 20.3552 357.432 22.9345C357.37 22.995 357.334 23.0781 357.333 23.1652C357.333 23.2523 357.367 23.336 357.428 23.3977L358.588 24.5748C358.708 24.695 358.901 24.6976 359.024 24.5805C359.93 23.7565 361.109 23.3 362.332 23.2995ZM364.667 26.0231C364.668 26.1085 364.634 26.1909 364.572 26.2508L362.557 28.2419C362.498 28.3004 362.417 28.3333 362.333 28.3333C362.249 28.3333 362.169 28.3004 362.11 28.2419L360.095 26.2508C360.032 26.1908 359.998 26.1084 360 26.023C360.002 25.9375 360.04 25.8566 360.104 25.7993C361.391 24.7336 363.276 24.7336 364.562 25.7993C364.627 25.8567 364.665 25.9376 364.667 26.0231Z" fill="black"/>
<path fill-rule="evenodd" clip-rule="evenodd" d="M349.667 18.6667C349.667 18.1144 349.219 17.6667 348.667 17.6667H347.667C347.114 17.6667 346.667 18.1144 346.667 18.6667V27.3333C346.667 27.8856 347.114 28.3333 347.667 28.3333H348.667C349.219 28.3333 349.667 27.8856 349.667 27.3333V18.6667ZM343 20H344C344.552 20 345 20.4477 345 21V27.3333C345 27.8856 344.552 28.3333 344 28.3333H343C342.448 28.3333 342 27.8856 342 27.3333V21C342 20.4477 342.448 20 343 20ZM339.333 22.3333H338.333C337.781 22.3333 337.333 22.781 337.333 23.3333V27.3333C337.333 27.8856 337.781 28.3333 338.333 28.3333H339.333C339.886 28.3333 340.333 27.8856 340.333 27.3333V23.3333C340.333 22.781 339.886 22.3333 339.333 22.3333ZM335.667 25.3333C335.667 24.781 335.219 24.3333 334.667 24.3333H333.667C333.114 24.3333 332.667 24.781 332.667 25.3333V27.3333C332.667 27.8856 333.114 28.3333 333.667 28.3333H334.667C335.219 28.3333 335.667 27.8856 335.667 27.3333V25.3333Z" fill="black"/>
<path d="M36.9974 28.2563C39.6854 28.2563 41.2821 26.1543 41.2821 22.5947C41.2821 21.2544 41.0257 20.1265 40.535 19.2549C39.8245 17.8999 38.6014 17.1675 37.056 17.1675C34.7562 17.1675 33.1302 18.7129 33.1302 20.8809C33.1302 22.917 34.595 24.3965 36.6092 24.3965C37.847 24.3965 38.8504 23.8179 39.3485 22.8145H39.3704C39.3704 22.8145 39.3997 22.8145 39.4071 22.8145C39.4217 22.8145 39.473 22.8145 39.473 22.8145C39.473 25.2314 38.5574 26.6743 37.012 26.6743C36.1038 26.6743 35.4007 26.1763 35.159 25.3779H33.2767C33.5916 27.1138 35.0638 28.2563 36.9974 28.2563ZM37.0633 22.895C35.8475 22.895 34.9832 22.0308 34.9832 20.8223C34.9832 19.6431 35.8914 18.7422 37.0706 18.7422C38.2498 18.7422 39.158 19.6577 39.158 20.8516C39.158 22.0308 38.2718 22.895 37.0633 22.895ZM44.2666 26.8794C44.9624 26.8794 45.4385 26.3813 45.4385 25.7222C45.4385 25.0557 44.9624 24.5649 44.2666 24.5649C43.5781 24.5649 43.0947 25.0557 43.0947 25.7222C43.0947 26.3813 43.5781 26.8794 44.2666 26.8794ZM44.2666 21.3862C44.9624 21.3862 45.4385 20.8955 45.4385 20.2363C45.4385 19.5698 44.9624 19.0791 44.2666 19.0791C43.5781 19.0791 43.0947 19.5698 43.0947 20.2363C43.0947 20.8955 43.5781 21.3862 44.2666 21.3862ZM47.4635 20.522V20.5513H49.236V20.522C49.236 19.4453 49.9831 18.7202 51.089 18.7202C52.1291 18.7202 52.8908 19.394 52.8908 20.3242C52.8908 21.0713 52.5319 21.6206 51.089 23.0854L47.5661 26.689V28H54.9049V26.396H50.1588V26.2715L52.3708 24.0522C54.1652 22.2798 54.7438 21.3423 54.7438 20.207C54.7438 18.4419 53.235 17.1675 51.1476 17.1675C48.9796 17.1675 47.4635 18.5444 47.4635 20.522ZM57.1424 28H59.1199L63.639 19.0425V17.4312H56.2855V19.0205H61.7347V19.1377L57.1424 28Z" fill="black"/>
<defs>
<filter id="filter0_d_1:3" x="23" y="367" width="357" height="82" filterUnits="userSpaceOnUse" color-interpolation-filters="sRGB">
<feFlood flood-opacity="0" result="BackgroundImageFix"/>
<feColorMatrix in="SourceAlpha" type="matrix" values="0 0 0 0 0 0 0 0 0 0 0 0 0 0 0 0 0 0 127 0" result="hardAlpha"/>
<feOffset dx="-4" dy="4"/>
<feGaussianBlur stdDeviation="9"/>
<feColorMatrix type="matrix" values="0 0 0 0 0 0 0 0 0 0 0 0 0 0 0 0 0 0 0.09 0"/>
<feBlend mode="normal" in2="BackgroundImageFix" result="effect1_dropShadow_1:3"/>
<feBlend mode="normal" in="SourceGraphic" in2="effect1_dropShadow_1:3" result="shape"/>
</filter>
<filter id="filter1_d_1:3" x="23" y="434" width="357" height="82" filterUnits="userSpaceOnUse" color-interpolation-filters="sRGB">
<feFlood flood-opacity="0" result="BackgroundImageFix"/>
<feColorMatrix in="SourceAlpha" type="matrix" values="0 0 0 0 0 0 0 0 0 0 0 0 0 0 0 0 0 0 127 0" result="hardAlpha"/>
<feOffset dx="-4" dy="4"/>
<feGaussianBlur stdDeviation="9"/>
<feColorMatrix type="matrix" values="0 0 0 0 0 0 0 0 0 0 0 0 0 0 0 0 0 0 0.09 0"/>
<feBlend mode="normal" in2="BackgroundImageFix" result="effect1_dropShadow_1:3"/>
<feBlend mode="normal" in="SourceGraphic" in2="effect1_dropShadow_1:3" result="shape"/>
</filter>
<filter id="filter2_d_1:3" x="118" y="568" width="169" height="82" filterUnits="userSpaceOnUse" color-interpolation-filters="sRGB">
<feFlood flood-opacity="0" result="BackgroundImageFix"/>
<feColorMatrix in="SourceAlpha" type="matrix" values="0 0 0 0 0 0 0 0 0 0 0 0 0 0 0 0 0 0 127 0" result="hardAlpha"/>
<feOffset dx="-4" dy="4"/>
<feGaussianBlur stdDeviation="9"/>
<feColorMatrix type="matrix" values="0 0 0 0 0 0 0 0 0 0 0 0 0 0 0 0 0 0 0.09 0"/>
<feBlend mode="normal" in2="BackgroundImageFix" result="effect1_dropShadow_1:3"/>
<feBlend mode="normal" in="SourceGraphic" in2="effect1_dropShadow_1:3" result="shape"/>
</filter>
</defs>
</svg>
